<?xml version="1.0" encoding="UTF-8"?> <svg xmlns="http://www.w3.org/2000/svg" width="575" height="395" viewBox="0 0 575 395" fill="none"><path d="M0 205.337V230.069C0 233.233 2.01704 236.396 6.19519 238.697V213.964C2.01704 211.664 0 208.5 0 205.337Z" fill="#2B1C4C"></path><path d="M568.661 211.52C572.839 209.075 575 205.912 575 202.748V227.481C575 230.644 572.983 233.808 568.661 236.252L299.53 391.405V366.673L568.661 211.52Z" fill="#22173F"></path><path d="M269.275 366.673C277.631 371.418 291.03 371.418 299.387 366.673V391.405C291.03 396.15 277.487 396.15 269.275 391.405L6.33984 238.841V214.108L269.275 366.673Z" fill="#2B1C4C"></path><path d="M6.34004 196.565C-2.01626 201.31 -2.01626 209.219 6.19597 213.964L269.275 366.673C277.632 371.418 291.031 371.418 299.387 366.673L568.517 211.52C576.874 206.775 576.874 198.866 568.662 194.121L305.582 41.5562C297.226 36.811 283.827 36.811 275.471 41.5562L6.34004 196.565Z" fill="#382F47"></path><path d="M6.34004 196.565C-2.01626 201.31 -2.01626 209.219 6.19597 213.964L269.275 366.673C277.632 371.418 291.031 371.418 299.387 366.673L568.517 211.52C576.874 206.775 576.874 198.866 568.662 194.121L305.582 41.5562C297.226 36.811 283.827 36.811 275.471 41.5562L6.34004 196.565Z" fill="#382F47"></path><g opacity="0.68"><g opacity="0.68"><path opacity="0.68" d="M6.34004 196.565C-2.01626 201.31 -2.01626 209.219 6.19597 213.964L269.275 366.673C277.632 371.418 291.031 371.418 299.387 366.673L568.517 211.52C576.874 206.775 576.874 198.866 568.662 194.121L305.582 41.5562C297.226 36.811 283.827 36.811 275.471 41.5562L6.34004 196.565Z" fill="url(#paint0_linear)"></path></g></g><path d="M22.9075 192.683C14.9834 197.284 14.9834 204.618 22.7634 209.075L270.427 352.725C278.207 357.182 290.885 357.326 298.809 352.725L552.092 206.775C559.872 202.317 560.016 194.84 552.236 190.382L304.572 46.7328C296.792 42.1314 284.114 42.1314 276.19 46.7328L22.9075 192.683Z" fill="url(#paint1_linear)"></path><path d="M22.9075 192.683L276.19 46.7328C283.97 42.2753 296.792 42.2753 304.572 46.7328L314.802 52.6284L32.9927 214.971L22.7634 209.075C14.9834 204.474 14.9834 197.141 22.9075 192.683Z" fill="#EF525E"></path><path d="M65.8416 182.474C69.2994 184.487 69.2994 187.65 65.8416 189.519C62.3838 191.532 56.909 191.532 53.5953 189.519C50.1375 187.506 50.1375 184.343 53.5953 182.474C56.909 180.604 62.3838 180.604 65.8416 182.474Z" fill="white"></path><path d="M44.6629 194.696C48.1207 196.709 48.1207 199.872 44.6629 201.742C41.2051 203.755 35.7303 203.755 32.4166 201.742C28.9588 199.729 28.9588 196.565 32.4166 194.696C35.7303 192.683 41.3492 192.683 44.6629 194.696Z" fill="#2C2733"></path><path opacity="0.15" d="M275.614 193.114L415.51 112.59L339.871 68.7332L199.831 149.401L275.614 193.114Z" fill="#1A1A1A"></path><path d="M276.767 178.304L411.909 100.368C413.493 99.5049 413.493 97.2042 411.909 96.3415L341.024 55.2166C340.304 54.7852 339.439 54.7852 338.719 55.2166L203.289 133.296C201.704 134.159 201.704 136.46 203.289 137.323L274.318 178.304C275.182 178.735 276.047 178.735 276.767 178.304Z" fill="url(#paint2_linear)"></path><path d="M276.767 170.251L411.909 92.3152C413.493 91.4524 413.493 89.1517 411.909 88.289L341.024 47.1641C340.304 46.7327 339.439 46.7327 338.719 47.1641L203.289 125.244C201.704 126.107 201.704 128.407 203.289 129.27L274.318 170.251C275.182 170.539 276.047 170.539 276.767 170.251Z" fill="#336ADD"></path><path d="M339.295 31.4907L441.299 90.1584" stroke="#33B3DD" stroke-miterlimit="10"></path><path d="M332.235 35.5168L434.24 94.3283" stroke="#33B3DD" stroke-miterlimit="10"></path><path d="M325.32 39.5432L427.181 98.3546" stroke="#33B3DD" stroke-miterlimit="10"></path><path d="M318.261 43.5693L420.121 102.381" stroke="#33B3DD" stroke-miterlimit="10"></path><path d="M311.2 47.7393L413.205 106.407" stroke="#33B3DD" stroke-miterlimit="10"></path><path d="M304.142 51.7656L406.146 110.433" stroke="#33B3DD" stroke-miterlimit="10"></path><path d="M297.081 55.7917L399.086 114.459" stroke="#33B3DD" stroke-miterlimit="10"></path><path d="M290.166 59.8179L392.026 118.629" stroke="#33B3DD" stroke-miterlimit="10"></path><path d="M283.106 63.8442L384.967 122.656" stroke="#33B3DD" stroke-miterlimit="10"></path><path d="M276.047 67.8704L378.051 126.682" stroke="#33B3DD" stroke-miterlimit="10"></path><path d="M268.987 72.0403L370.992 130.708" stroke="#33B3DD" stroke-miterlimit="10"></path><path d="M262.071 76.0667L363.932 134.734" stroke="#33B3DD" stroke-miterlimit="10"></path><path d="M255.012 80.0928L356.872 138.76" stroke="#33B3DD" stroke-miterlimit="10"></path><path d="M247.952 84.1191L349.813 142.931" stroke="#33B3DD" stroke-miterlimit="10"></path><path d="M240.893 88.1453L342.897 146.957" stroke="#33B3DD" stroke-miterlimit="10"></path><path d="M233.833 92.3152L335.838 150.983" stroke="#33B3DD" stroke-miterlimit="10"></path><path d="M226.917 96.3416L328.777 155.009" stroke="#33B3DD" stroke-miterlimit="10"></path><path d="M219.857 100.368L321.718 159.035" stroke="#33B3DD" stroke-miterlimit="10"></path><path d="M212.798 104.394L314.658 163.061" stroke="#33B3DD" stroke-miterlimit="10"></path><path d="M205.738 108.42L307.743 167.232" stroke="#33B3DD" stroke-miterlimit="10"></path><path d="M198.679 112.446L300.683 171.258" stroke="#33B3DD" stroke-miterlimit="10"></path><path d="M191.764 116.616L293.624 175.284" stroke="#33B3DD" stroke-miterlimit="10"></path><path d="M184.703 120.643L286.564 179.31" stroke="#33B3DD" stroke-miterlimit="10"></path><path d="M177.644 124.669L279.648 183.336" stroke="#33B3DD" stroke-miterlimit="10"></path><path d="M170.584 128.695L272.589 187.363" stroke="#33B3DD" stroke-miterlimit="10"></path><path d="M267.258 185.349L435.969 88.1453" stroke="#33B3DD" stroke-miterlimit="10"></path><path d="M260.198 181.323L428.909 84.1191" stroke="#33B3DD" stroke-miterlimit="10"></path><path d="M253.283 177.297L421.85 80.0928" stroke="#33B3DD" stroke-miterlimit="10"></path><path d="M246.224 173.271L414.934 76.0667" stroke="#33B3DD" stroke-miterlimit="10"></path><path d="M239.164 169.245L407.875 72.0403" stroke="#33B3DD" stroke-miterlimit="10"></path><path d="M232.104 165.218L400.815 67.8704" stroke="#33B3DD" stroke-miterlimit="10"></path><path d="M225.044 161.048L393.755 63.8442" stroke="#33B3DD" stroke-miterlimit="10"></path><path d="M218.129 157.022L386.84 59.8179" stroke="#33B3DD" stroke-miterlimit="10"></path><path d="M211.069 152.996L379.78 55.7917" stroke="#33B3DD" stroke-miterlimit="10"></path><path d="M204.01 148.97L372.721 51.7656" stroke="#33B3DD" stroke-miterlimit="10"></path><path d="M196.95 144.943L365.661 47.7393" stroke="#33B3DD" stroke-miterlimit="10"></path><path d="M189.89 140.917L358.601 43.5693" stroke="#33B3DD" stroke-miterlimit="10"></path><path d="M182.975 136.747L351.685 39.5432" stroke="#33B3DD" stroke-miterlimit="10"></path><path d="M175.915 132.721L344.626 35.5168" stroke="#33B3DD" stroke-miterlimit="10"></path><path d="M168.855 128.695L337.566 31.4907" stroke="#33B3DD" stroke-miterlimit="10"></path><path d="M272.589 188.513L441.3 91.1648" stroke="#33B3DD" stroke-miterlimit="10"></path><path d="M339.006 220.723C341.888 218.997 338.862 215.834 335.549 212.383C332.667 209.363 329.786 206.343 331.803 205.049C333.964 203.899 339.295 205.481 344.481 207.206C350.388 209.075 356.007 210.801 358.889 209.219C361.77 207.494 358.745 204.33 355.431 200.879C352.549 197.86 349.668 194.84 351.685 193.546C353.846 192.395 359.177 193.977 364.363 195.703C370.27 197.572 375.889 199.297 378.771 197.716C381.652 195.99 378.627 192.827 375.313 189.376C372.432 186.356 369.55 183.336 371.567 182.042C373.728 180.892 379.059 182.474 384.246 184.199C390.153 186.069 395.772 187.794 398.653 186.212C401.535 184.487 398.509 181.323 395.195 177.872C392.314 174.853 389.432 171.833 391.449 170.539C393.611 169.388 398.941 170.97 404.128 172.696C410.035 174.565 415.654 176.291 418.535 174.709C421.417 172.983 418.391 169.82 415.078 166.369C412.196 163.349 409.315 160.33 411.332 159.035L410.323 158.46C407.442 160.186 410.467 163.349 413.781 166.8C416.662 169.82 419.544 172.84 417.527 174.134C415.366 175.284 410.035 173.702 404.848 171.977C398.941 170.107 393.322 168.382 390.441 169.964C387.559 171.689 390.585 174.853 393.899 178.304C396.78 181.323 399.662 184.343 397.645 185.637C395.483 186.787 390.153 185.206 384.966 183.48C379.059 181.611 373.44 179.885 370.559 181.467C367.677 183.193 370.703 186.356 374.016 189.807C376.898 192.827 379.779 195.846 377.762 197.141C375.601 198.291 370.27 196.709 365.084 194.984C359.177 193.114 353.558 191.389 350.676 192.971C347.795 194.696 350.82 197.86 354.134 201.311C357.016 204.33 359.897 207.35 357.88 208.644C355.719 209.794 350.388 208.213 345.202 206.487C339.295 204.618 333.676 202.892 330.794 204.474C327.913 206.2 330.938 209.363 334.252 212.814C337.133 215.834 340.015 218.853 337.998 220.148L339.006 220.723Z" fill="#1A1A1A"></path><path d="M339.006 217.128C341.888 215.402 338.862 212.239 335.549 208.788C332.667 205.768 329.786 202.748 331.803 201.454C333.964 200.304 339.295 201.886 344.481 203.611C350.388 205.48 356.007 207.206 358.889 205.624C361.77 203.899 358.745 200.735 355.431 197.284C352.549 194.265 349.668 191.245 351.685 189.951C353.846 188.8 359.177 190.382 364.363 192.108C370.27 193.977 375.889 195.703 378.771 194.121C381.652 192.395 378.627 189.232 375.313 185.781C372.432 182.761 369.55 179.741 371.567 178.447C373.728 177.297 379.059 178.879 384.246 180.604C390.153 182.474 395.772 184.199 398.653 182.617C401.535 180.892 398.509 177.728 395.195 174.277C392.314 171.258 389.432 168.238 391.449 166.944C393.611 165.794 398.941 167.375 404.128 169.101C410.035 170.97 415.654 172.696 418.535 171.114C421.417 169.388 418.391 166.225 415.078 162.774C412.196 159.754 409.315 156.735 411.332 155.44L410.323 154.865C407.442 156.591 410.467 159.754 413.781 163.205C416.662 166.225 419.544 169.245 417.527 170.539C415.366 171.689 410.035 170.107 404.848 168.382C398.941 166.512 393.322 164.787 390.441 166.369C387.559 168.094 390.585 171.258 393.899 174.709C396.78 177.728 399.662 180.748 397.645 182.042C395.483 183.192 390.153 181.611 384.966 179.885C379.059 178.016 373.44 176.29 370.559 177.872C367.677 179.598 370.703 182.761 374.016 186.212C376.898 189.232 379.779 192.251 377.762 193.546C375.601 194.696 370.27 193.114 365.084 191.389C359.177 189.519 353.558 187.794 350.676 189.376C347.795 191.101 350.82 194.265 354.134 197.716C357.016 200.735 359.897 203.755 357.88 205.049C355.719 206.199 350.388 204.618 345.202 202.892C339.295 201.023 333.676 199.297 330.794 200.879C327.913 202.605 330.938 205.768 334.252 209.219C337.133 212.239 340.015 215.258 337.998 216.553L339.006 217.128Z" fill="#EF525E"></path><path d="M388.856 49.4648L388.712 82.5373L355.863 101.518L356.007 68.5893L388.856 49.4648Z" fill="url(#paint3_linear)"></path><path d="M356.008 68.5893L355.864 101.518L322.727 82.5373L322.871 49.4648L356.008 68.5893Z" fill="url(#paint4_linear)"></path><path d="M388.856 49.4648L356.007 68.5893L322.87 49.4648L355.719 30.3403L388.856 49.4648Z" fill="url(#paint5_linear)"></path><path d="M388.856 50.184L388.712 82.1061C388.712 82.2499 388.568 82.3937 388.424 82.5375L356.439 101.087C356.151 101.231 355.719 101.087 355.719 100.655L355.863 68.7333C355.863 68.5895 356.007 68.4457 356.151 68.3019L388.135 49.7526C388.424 49.6088 388.856 49.8964 388.856 50.184Z" fill="url(#paint6_linear)" stroke="#00FFFF" stroke-miterlimit="10"></path><path d="M356.007 68.7333L355.863 100.799C355.863 101.087 355.431 101.374 355.143 101.231L322.87 82.6813C322.726 82.5375 322.582 82.3937 322.582 82.2499L322.726 50.3278C322.726 50.0402 323.158 49.7526 323.446 49.8964L355.719 68.4457C355.863 68.4457 356.007 68.5895 356.007 68.7333Z" fill="url(#paint7_linear)" stroke="#00FFFF" stroke-miterlimit="10"></path><path d="M388.136 49.8964L356.151 68.4457C356.007 68.5895 355.863 68.5895 355.719 68.4457L323.447 49.8964C323.158 49.7526 323.158 49.3212 323.447 49.1774L355.431 30.6281C355.575 30.4843 355.719 30.4843 355.863 30.6281L388.136 49.1774C388.424 49.1774 388.424 49.6088 388.136 49.8964Z" fill="url(#paint8_linear)" stroke="#00FFFF" stroke-miterlimit="10"></path><path d="M388.28 45.5824L356.296 64.1318C356.152 64.2756 356.008 64.2756 355.864 64.1318L323.591 45.5824C323.303 45.4386 323.303 45.0073 323.591 44.8635L355.576 26.3141C355.72 26.1704 355.864 26.1704 356.008 26.3141L388.28 44.8635C388.569 45.0073 388.569 45.4386 388.28 45.5824Z" stroke="#00FFFF" stroke-miterlimit="10"></path><g opacity="0.67"><path opacity="0.67" d="M402.976 90.1584L370.127 109.139L324.888 83.9753L357.737 64.9946L402.976 90.1584Z" fill="#1A1A1A"></path></g><path d="M342.176 42.9941L342.031 109.139L309.183 128.12L309.327 62.1186L342.176 42.9941Z" fill="url(#paint9_linear)"></path><path d="M309.327 62.1186L309.183 128.12L276.046 109.139L276.19 42.9941L309.327 62.1186Z" fill="url(#paint10_linear)"></path><path d="M342.175 42.9941L309.327 62.1186L276.189 42.9941L309.182 24.0134L342.175 42.9941Z" fill="url(#paint11_linear)"></path><path d="M342.176 43.8571L342.032 108.852C342.032 108.995 341.888 109.139 341.744 109.283L309.759 127.832C309.471 127.976 309.039 127.832 309.039 127.401L309.183 62.4065C309.183 62.2627 309.327 62.1189 309.471 61.9751L341.456 43.4257C341.888 43.282 342.176 43.4257 342.176 43.8571Z" fill="url(#paint12_linear)" stroke="#00FFFF" stroke-miterlimit="10"></path><path d="M309.327 62.4064L309.183 127.401C309.183 127.689 308.751 127.976 308.463 127.832L276.334 109.283C276.19 109.139 276.046 108.995 276.046 108.852L276.19 43.8571C276.19 43.5695 276.622 43.2819 276.91 43.4257L309.183 61.975C309.327 62.1188 309.327 62.2626 309.327 62.4064Z" fill="url(#paint13_linear)" stroke="#00FFFF" stroke-miterlimit="10"></path><path d="M341.6 43.4257L309.615 61.975C309.471 62.1188 309.327 62.1188 309.183 61.975L276.91 43.4257C276.622 43.2819 276.622 42.8505 276.91 42.7067L308.895 24.1574C309.039 24.0136 309.183 24.0136 309.327 24.1574L341.6 42.7067C341.888 42.8505 341.888 43.2819 341.6 43.4257Z" fill="url(#paint14_linear)" stroke="#00FFFF" stroke-miterlimit="10"></path><g opacity="0.67"><path opacity="0.67" d="M354.279 116.472L321.43 135.453L276.19 110.289L309.039 91.3086L354.279 116.472Z" fill="#1A1A1A"></path></g><g opacity="0.67"><path opacity="0.67" d="M309.76 140.774L276.767 159.754L231.527 134.734L264.376 115.61L309.76 140.774Z" fill="#1A1A1A"></path></g><path d="M297.513 118.486V135.022L264.664 154.003V137.466L297.513 118.486Z" fill="url(#paint15_linear)"></path><path d="M264.664 137.466V154.003L231.527 135.022V118.486L264.664 137.466Z" fill="url(#paint16_linear)"></path><path d="M297.513 118.486L264.664 137.466L231.527 118.486L264.376 99.3611L297.513 118.486Z" fill="url(#paint17_linear)"></path><path d="M297.513 119.205V134.734C297.513 134.878 297.368 135.022 297.224 135.166L265.24 153.715C264.952 153.859 264.52 153.715 264.52 153.284V137.754C264.52 137.61 264.664 137.467 264.808 137.323L296.792 118.917C297.224 118.63 297.513 118.917 297.513 119.205Z" fill="url(#paint18_linear)" stroke="#00FFFF" stroke-miterlimit="10"></path><path d="M264.664 137.754V153.284C264.664 153.571 264.232 153.859 263.944 153.715L231.671 135.166C231.527 135.022 231.383 134.878 231.383 134.734V119.205C231.383 118.917 231.815 118.63 232.103 118.773L264.376 137.323C264.52 137.466 264.664 137.61 264.664 137.754Z" fill="url(#paint19_linear)" stroke="#00FFFF" stroke-miterlimit="10"></path><path d="M296.792 118.917L264.808 137.466C264.664 137.61 264.52 137.61 264.375 137.466L232.103 118.917C231.815 118.773 231.815 118.342 232.103 118.198L264.087 99.6489C264.231 99.5051 264.375 99.5051 264.52 99.6489L296.792 118.054C297.224 118.198 297.224 118.63 296.792 118.917Z" fill="url(#paint20_linear)" stroke="#00FFFF" stroke-miterlimit="10"></path><path d="M204.729 165.794L95.5208 228.775C89.6137 232.226 79.3845 231.795 72.4689 227.768C65.6974 223.886 64.9771 217.847 70.8841 214.539L180.092 151.558C185.999 148.107 196.229 148.538 203.144 152.565C209.916 156.447 210.636 162.343 204.729 165.794Z" fill="url(#paint21_linear)" stroke="#00FFFF" stroke-miterlimit="10"></path><path d="M185.135 166.225C189.671 166.225 193.347 164.1 193.347 161.48C193.347 158.859 189.671 156.735 185.135 156.735C180.6 156.735 176.923 158.859 176.923 161.48C176.923 164.1 180.6 166.225 185.135 166.225Z" stroke="#EF525E" stroke-miterlimit="10"></path><path d="M193.348 161.48H201.56" stroke="#EF525E" stroke-miterlimit="10"></path><path d="M232.68 217.415C208.764 203.611 170.152 203.611 146.235 217.415L189.458 242.292L232.68 217.415Z" fill="url(#paint22_linear)" stroke="#00FFFF" stroke-miterlimit="10"></path><path d="M146.235 217.416C122.319 231.22 122.319 253.508 146.235 267.168L189.457 242.292L146.235 217.416Z" fill="#29ABE2" stroke="#00FFFF" stroke-miterlimit="10"></path><path d="M146.235 227.481L180.669 247.325L189.458 242.292L146.235 217.416C132.116 225.612 126.353 236.828 128.946 247.325C130.819 239.991 136.582 233.089 146.235 227.481Z" fill="url(#paint23_linear)"></path><path d="M146.235 267.168C170.152 280.972 208.764 280.972 232.68 267.168L189.458 242.292L146.235 267.168Z" fill="url(#paint24_linear)" stroke="#00FFFF" stroke-miterlimit="10"></path><path d="M232.679 217.416L189.457 242.292L232.679 267.168C256.596 253.364 256.596 231.076 232.679 217.416Z" fill="url(#paint25_linear)" stroke="#00FFFF" stroke-miterlimit="10"></path><path d="M227.925 198.579L245.646 188.369C247.087 187.506 246.943 186.069 245.214 185.062C243.485 184.055 241.036 184.055 239.595 184.774L221.874 194.984C220.433 195.846 220.577 197.284 222.306 198.291C224.035 199.297 226.484 199.441 227.925 198.579Z" fill="#29ABE2" stroke="#00FFFF" stroke-miterlimit="10"></path><path d="M236.281 204.186L254.003 193.977C255.443 193.114 255.299 191.676 253.57 190.67C251.841 189.663 249.392 189.663 247.952 190.382L230.23 200.592C228.79 201.454 228.934 202.892 230.663 203.899C232.391 204.905 234.841 205.049 236.281 204.186Z" fill="#662D91"></path><path d="M245.934 209.507L263.655 199.297C265.096 198.435 264.952 196.997 263.223 195.99C261.494 194.984 259.045 194.984 257.604 195.703L239.883 205.912C238.442 206.775 238.586 208.213 240.315 209.219C242.044 210.226 244.493 210.37 245.934 209.507Z" fill="#662D91"></path><path d="M254.435 215.115L272.156 204.905C273.597 204.043 273.453 202.605 271.724 201.598C269.995 200.592 267.546 200.592 266.105 201.311L248.384 211.52C246.943 212.383 247.087 213.821 248.816 214.827C250.401 215.834 252.994 215.977 254.435 215.115Z" fill="#662D91"></path><path d="M264.232 220.723L281.953 210.513C283.394 209.65 283.249 208.213 281.521 207.206C279.792 206.199 277.342 206.199 275.902 206.918L258.181 217.128C256.74 217.991 256.884 219.428 258.613 220.435C260.342 221.442 262.791 221.585 264.232 220.723Z" fill="#662D91"></path><path d="M442.74 163.349L464.639 150.695C469.249 148.107 468.673 143.362 463.342 140.342C458.012 137.323 449.944 136.891 445.333 139.623L423.434 152.277C418.824 154.865 419.4 159.611 424.731 162.63C430.061 165.794 438.129 166.081 442.74 163.349Z" fill="#EF525E"></path><path d="M423.434 156.303L445.333 143.65C449.944 141.061 458.012 141.349 463.343 144.369C465.216 145.519 466.512 146.813 467.233 148.107C468.529 145.519 467.233 142.499 463.343 140.199C458.012 137.179 449.944 136.747 445.333 139.48L423.434 152.133C420.552 153.859 419.688 156.303 420.841 158.748C421.417 157.885 422.281 157.022 423.434 156.303Z" fill="url(#paint26_linear)"></path><path d="M460.317 143.506V148.395C460.317 149.545 459.597 150.839 458.012 151.702C454.843 153.571 449.656 153.571 446.486 151.702C444.902 150.839 444.037 149.545 444.037 148.395V143.506C444.037 144.656 444.902 145.95 446.486 146.813C449.656 148.682 454.843 148.682 458.012 146.813C459.597 145.95 460.317 144.656 460.317 143.506Z" fill="#E3C2FF"></path><path d="M457.868 140.198C461.038 142.068 461.038 144.944 457.868 146.813C454.698 148.682 449.512 148.682 446.342 146.813C443.172 144.944 443.172 142.068 446.342 140.198C449.656 138.329 454.698 138.329 457.868 140.198Z" fill="white"></path><path d="M209.772 181.611C212.509 183.193 216.976 183.193 219.713 181.611C222.45 180.029 222.45 177.441 219.713 175.859C216.976 174.277 212.509 174.277 209.772 175.859C207.034 177.441 207.034 180.029 209.772 181.611Z" stroke="#00FFFF" stroke-miterlimit="10" stroke-linecap="round"></path><path d="M218.992 190.382L217.263 186.787C217.119 186.356 216.975 185.781 217.119 185.349C217.984 182.905 221.441 181.036 225.62 180.604C226.484 180.46 227.349 180.604 228.069 180.748L234.12 181.755" stroke="#00FFFF" stroke-miterlimit="10" stroke-linecap="round"></path><path d="M341.6 38.3927L309.615 56.9421C309.471 57.0859 309.327 57.0859 309.183 56.9421L276.91 38.3927C276.622 38.2489 276.622 37.8176 276.91 37.6738L308.895 19.1244C309.039 18.9807 309.183 18.9807 309.327 19.1244L341.6 37.6738C341.888 37.8176 341.888 38.2489 341.6 38.3927Z" stroke="#00FFFF" stroke-miterlimit="10"></path><path d="M297.081 114.891L265.097 133.44C264.953 133.584 264.809 133.584 264.664 133.44L232.392 114.891C232.104 114.747 232.104 114.316 232.392 114.172L264.376 95.6225C264.52 95.4787 264.665 95.4787 264.809 95.6225L297.081 114.172C297.369 114.316 297.369 114.747 297.081 114.891Z" stroke="#00FFFF" stroke-miterlimit="10"></path><path opacity="0.35" d="M305.581 36.8112C304.284 37.5302 304.284 38.8243 305.581 39.5433C306.878 40.2622 309.039 40.2622 310.335 39.5433C311.632 38.8243 311.632 37.5302 310.335 36.8112C309.039 36.0922 306.878 36.0922 305.581 36.8112Z" fill="#1A1A1A"></path><path opacity="0.5" d="M316.387 0.431475L297.801 11.0722C296.073 12.0787 294.632 14.5232 294.632 16.3925V30.3405C294.632 32.3536 296.073 33.0725 297.801 32.066L303.709 28.7587L307.166 30.7718L310.624 24.8763L316.531 21.5691C318.26 20.5625 319.701 18.118 319.701 16.2487V2.15699C319.413 0.287682 318.116 -0.575078 316.387 0.431475Z" fill="#2E3192"></path><path opacity="0.82" d="M316.963 0.862835L298.378 11.5035C296.649 12.5101 295.208 14.9546 295.208 16.8239V30.7718C295.208 32.7849 296.649 33.5039 298.378 32.4973L304.285 29.1901L307.742 31.2032L311.2 25.3077L317.107 22.0004C318.836 20.9939 320.277 18.5494 320.277 16.6801V2.58835C320.133 0.575248 318.692 -0.143717 316.963 0.862835Z" fill="url(#paint27_linear)"></path><path opacity="0.35" d="M312.497 10.9283C311.2 10.0655 309.039 11.9349 308.175 14.2356L308.03 14.3793L307.886 14.2356C307.022 12.9414 304.717 13.6604 303.564 15.9611C302.844 17.1114 302.556 18.5493 302.556 19.6997C302.556 20.5625 303.132 21.1376 303.852 21.569L308.463 22.5756L312.785 15.5297C313.938 13.229 313.505 11.5035 312.497 10.9283Z" fill="#1A1A1A"></path><path d="M312.785 9.77792C311.488 8.91516 309.327 10.7845 308.463 13.0852L308.319 13.3727L308.174 13.229C307.31 11.9348 305.005 12.6538 303.852 14.9545C303.132 16.1048 302.844 17.5427 302.844 18.6931C302.844 19.5559 303.42 20.131 304.14 20.5624L308.751 21.569L313.217 14.5231C314.081 12.2224 313.793 10.4969 312.785 9.77792Z" fill="#EF525E"></path><path opacity="0.32" d="M141.337 95.4788L185.711 69.8836C186.72 69.3085 187.44 68.1581 187.44 67.0078V15.9612C187.44 13.3729 184.703 11.7912 182.398 13.0853L138.023 38.5367C137.014 39.1119 136.294 40.2622 136.294 41.4126V92.4592C136.294 95.1913 139.031 96.773 141.337 95.4788Z" fill="url(#paint28_linear)"></path><g opacity="0.6"><path opacity="0.6" d="M141.337 83.8316L185.711 58.2364C186.72 57.6613 187.44 56.5109 187.44 55.3606V4.31397C187.44 1.7257 184.703 0.14397 182.398 1.43811L138.023 27.0333C137.014 27.6085 136.294 28.7588 136.294 29.9092V80.9558C136.294 83.544 139.031 85.1258 141.337 83.8316Z" fill="white"></path></g><path d="M144.074 86.1324L188.449 60.5372C189.457 59.962 190.178 58.8117 190.178 57.6614V6.61475C190.178 4.02648 187.44 2.44475 185.135 3.73889L140.76 29.1903C139.752 29.7655 139.031 30.9158 139.031 32.0662V83.1128C139.031 85.8448 141.913 87.4266 144.074 86.1324Z" fill="white"></path><path opacity="0.2" d="M546.762 202.461L295.353 348.555C293.336 349.705 290.886 349.705 288.869 348.555L213.807 305.273L475.157 153.427L546.618 194.552C549.788 196.421 549.788 200.735 546.762 202.461Z" fill="#1A1A1A"></path><path d="M307.167 264.723L264.953 289.024C264.665 289.168 264.233 289.168 263.944 289.024L262.36 288.162C261.639 287.73 261.639 286.724 262.36 286.292L304.717 261.991C305.006 261.847 305.438 261.847 305.726 261.991L307.311 262.854C307.887 263.285 307.887 264.292 307.167 264.723Z" fill="#22173F"></path><path d="M314.082 268.606L271.724 292.907C271.436 293.05 271.004 293.05 270.716 292.907L269.131 292.044C268.411 291.612 268.411 290.606 269.131 290.175L311.489 265.873C311.777 265.73 312.209 265.73 312.497 265.873L314.082 266.736C314.803 267.311 314.803 268.318 314.082 268.606Z" fill="#22173F"></path><path d="M320.854 272.632L278.496 296.933C278.208 297.077 277.776 297.077 277.487 296.933L275.903 296.07C275.182 295.639 275.182 294.632 275.903 294.201L318.26 269.9C318.549 269.756 318.981 269.756 319.269 269.9L320.854 270.763C321.574 271.194 321.574 272.201 320.854 272.632Z" fill="#22173F"></path><path d="M327.769 276.658L261.639 314.763C261.351 314.907 260.919 314.907 260.631 314.763L259.046 313.901C258.326 313.469 258.326 312.463 259.046 312.031L325.176 273.926C325.464 273.782 325.897 273.782 326.185 273.926L327.769 274.789C328.49 275.22 328.49 276.227 327.769 276.658Z" fill="#EF525E"></path><path d="M272.013 294.632V299.809C272.013 299.953 271.869 300.096 271.725 300.24L258.326 308.005C258.038 308.149 257.605 308.005 257.605 307.574V302.397C257.605 302.253 257.75 302.109 257.894 301.966L271.293 294.201C271.725 294.057 272.013 294.345 272.013 294.632Z" fill="url(#paint29_linear)" stroke="#00FFFF" stroke-miterlimit="10"></path><path d="M257.749 302.397V307.574C257.749 308.005 257.317 308.149 257.029 308.005L243.63 300.24C243.486 300.096 243.342 299.953 243.342 299.809V294.632C243.342 294.201 243.774 294.057 244.062 294.201L257.461 301.966C257.749 302.11 257.749 302.253 257.749 302.397Z" fill="url(#paint30_linear)" stroke="#00FFFF" stroke-miterlimit="10"></path><path d="M271.436 294.201L258.037 301.966C257.893 302.109 257.749 302.109 257.605 301.966L244.206 294.201C243.918 294.057 243.918 293.626 244.206 293.338L257.605 285.573C257.749 285.429 257.893 285.429 258.037 285.573L271.436 293.338C271.725 293.626 271.725 294.057 271.436 294.201Z" fill="url(#paint31_linear)" stroke="#00FFFF" stroke-miterlimit="10"></path><path d="M333.676 287.874C332.667 288.449 332.667 289.456 333.676 290.031C333.964 290.175 334.252 290.319 334.54 290.319L332.379 297.796C331.803 297.796 331.227 297.94 330.795 298.227C330.074 298.659 329.93 299.09 330.074 299.665L301.403 305.848C301.259 305.704 301.115 305.704 301.115 305.561C300.107 304.986 298.522 304.986 297.513 305.561C296.505 306.136 296.505 307.142 297.513 307.718C297.657 307.861 297.802 307.861 297.946 307.861L287.716 323.822C286.996 323.822 286.132 323.966 285.555 324.254C284.547 324.829 284.547 325.836 285.555 326.411C286.564 326.986 288.149 326.986 289.157 326.411C290.166 325.836 290.166 324.829 289.157 324.254C289.013 324.11 288.725 324.11 288.581 323.966L298.81 308.005C299.53 308.005 300.395 308.005 300.971 307.574C301.547 307.286 301.836 306.711 301.692 306.28L330.506 300.097C330.65 300.097 330.65 300.24 330.795 300.24C331.803 300.816 333.388 300.816 334.396 300.24C335.405 299.665 335.405 298.659 334.396 298.083C334.108 297.94 333.82 297.796 333.388 297.796L335.549 290.319C336.125 290.319 336.846 290.175 337.278 289.887C338.286 289.312 338.286 288.306 337.278 287.73C336.269 287.299 334.685 287.299 333.676 287.874Z" fill="#00FFFF"></path><path d="M185.28 22.7194L146.092 45.2949V42.2752L185.28 19.5559V22.7194Z" fill="#E6E6E6"></path><path d="M185.28 29.1901L146.092 51.7656V48.6021L185.28 26.0266V29.1901Z" fill="#E6E6E6"></path><path d="M185.28 35.517L146.092 58.2363V55.0729L185.28 32.4973V35.517Z" fill="#E6E6E6"></path><path d="M185.28 41.9877L146.092 64.5632V61.5435L185.28 38.8242V41.9877Z" fill="#E6E6E6"></path><path d="M185.28 48.4584L146.092 71.0339V68.0143L185.28 45.2949V48.4584Z" fill="#E6E6E6"></path><path d="M185.28 54.9291L160.787 69.0208V66.145L185.28 51.9094V54.9291Z" fill="#E6E6E6"></path><path d="M540.278 196.134L401.102 276.371L338.862 240.422L478.182 160.186L540.278 196.134Z" fill="#22173F"></path><g opacity="0.2"><path opacity="0.2" d="M353.27 243.873L412.772 209.651" stroke="white" stroke-miterlimit="10" stroke-linecap="round"></path><path opacity="0.2" d="M359.032 247.181L418.535 212.958" stroke="white" stroke-miterlimit="10" stroke-linecap="round"></path><path opacity="0.2" d="M364.651 250.488L424.298 216.265" stroke="white" stroke-miterlimit="10" stroke-linecap="round"></path><path opacity="0.2" d="M370.414 253.795L429.917 219.429" stroke="white" stroke-miterlimit="10" stroke-linecap="round"></path><path opacity="0.2" d="M376.178 257.102L435.68 222.736" stroke="white" stroke-miterlimit="10" stroke-linecap="round"></path><path opacity="0.2" d="M381.796 260.41L441.299 226.043" stroke="white" stroke-miterlimit="10" stroke-linecap="round"></path><path opacity="0.2" d="M387.56 263.717L447.062 229.35" stroke="white" stroke-miterlimit="10" stroke-linecap="round"></path><path opacity="0.2" d="M393.178 266.88L452.68 232.657" stroke="white" stroke-miterlimit="10" stroke-linecap="round"></path></g><path d="M356.871 236.684L407.585 265.874L446.917 243.154" stroke="#00FFFF" stroke-miterlimit="10" stroke-linecap="round"></path><path d="M370.415 236.396L365.516 239.272L361.771 237.115L366.669 234.239L370.415 236.396Z" stroke="#00FFFF" stroke-miterlimit="10" stroke-linecap="round"></path><path d="M386.406 234.095L371.567 242.723L367.389 240.278L382.228 231.795L386.406 234.095Z" stroke="#00FFFF" stroke-miterlimit="10" stroke-linecap="round"></path><path d="M385.975 241.285L377.474 246.174L373.729 244.017L382.229 239.128L385.975 241.285Z" stroke="#00FFFF" stroke-miterlimit="10" stroke-linecap="round"></path><path d="M402.398 238.697L383.525 249.625L379.635 247.324L398.508 236.396L402.398 238.697Z" stroke="#00FFFF" stroke-miterlimit="10" stroke-linecap="round"></path><path d="M422.281 234.095L389.577 253.076L385.398 250.632L418.247 231.795L422.281 234.095Z" stroke="#00FFFF" stroke-miterlimit="10" stroke-linecap="round"></path><path d="M421.417 241.573L395.483 256.527L391.737 254.37L417.671 239.416L421.417 241.573Z" stroke="#00FFFF" stroke-miterlimit="10" stroke-linecap="round"></path><path d="M421.273 248.619L401.535 259.978L397.645 257.678L417.239 246.318L421.273 248.619Z" stroke="#00FFFF" stroke-miterlimit="10" stroke-linecap="round"></path><path d="M433.375 248.475L407.586 263.429L403.84 261.272L429.629 246.318L433.375 248.475Z" stroke="#00FFFF" stroke-miterlimit="10" stroke-linecap="round"></path><path d="M370.415 236.396L365.516 239.272L361.771 237.115L366.669 234.239L370.415 236.396Z" fill="url(#paint32_linear)" stroke="#00FFFF" stroke-miterlimit="10"></path><path d="M386.406 234.095L371.567 242.723L367.389 240.278L382.228 231.795L386.406 234.095Z" fill="url(#paint33_linear)" stroke="#00FFFF" stroke-miterlimit="10"></path><path d="M385.975 241.285L377.474 246.174L373.729 244.017L382.229 239.128L385.975 241.285Z" fill="url(#paint34_linear)" stroke="#00FFFF" stroke-miterlimit="10"></path><path d="M402.398 238.697L383.525 249.625L379.635 247.324L398.508 236.396L402.398 238.697Z" fill="url(#paint35_linear)" stroke="#00FFFF" stroke-miterlimit="10"></path><path d="M422.281 234.095L389.577 253.076L385.398 250.632L418.247 231.795L422.281 234.095Z" fill="url(#paint36_linear)" stroke="#00FFFF" stroke-miterlimit="10"></path><path d="M421.417 241.573L395.483 256.527L391.737 254.37L417.671 239.416L421.417 241.573Z" fill="url(#paint37_linear)" stroke="#00FFFF" stroke-miterlimit="10"></path><path d="M421.273 248.619L401.535 259.978L397.645 257.678L417.239 246.318L421.273 248.619Z" fill="url(#paint38_linear)" stroke="#00FFFF" stroke-miterlimit="10"></path><path d="M433.375 248.475L407.586 263.429L403.84 261.272L429.629 246.318L433.375 248.475Z" fill="url(#paint39_linear)" stroke="#00FFFF" stroke-miterlimit="10"></path><path d="M361.049 239.416L358.456 240.997" stroke="#00FFFF" stroke-miterlimit="10" stroke-linecap="round"></path><path d="M366.669 242.723L364.075 244.161" stroke="#00FFFF" stroke-miterlimit="10" stroke-linecap="round"></path><path d="M373.296 246.605L370.702 248.043" stroke="#00FFFF" stroke-miterlimit="10" stroke-linecap="round"></path><path d="M378.915 249.769L376.321 251.351" stroke="#00FFFF" stroke-miterlimit="10" stroke-linecap="round"></path><path d="M384.534 253.076L381.94 254.514" stroke="#00FFFF" stroke-miterlimit="10" stroke-linecap="round"></path><path d="M390.153 256.24L387.56 257.821" stroke="#00FFFF" stroke-miterlimit="10" stroke-linecap="round"></path><path d="M395.772 259.547L393.179 260.985" stroke="#00FFFF" stroke-miterlimit="10" stroke-linecap="round"></path><path d="M401.534 262.71L398.797 264.292" stroke="#00FFFF" stroke-miterlimit="10" stroke-linecap="round"></path><path d="M470.834 174.565C473.716 176.147 478.326 176.147 481.208 174.565C484.089 172.983 484.089 170.251 481.208 168.669C478.326 167.088 473.716 167.088 470.834 168.669C468.097 170.251 468.097 172.839 470.834 174.565Z" stroke="#00FFFF" stroke-miterlimit="10" stroke-linecap="round" stroke-dasharray="2.55 2.55"></path><path d="M472.563 173.702C474.436 174.853 477.606 174.853 479.478 173.702C481.351 172.552 481.351 170.826 479.478 169.676C477.606 168.526 474.436 168.526 472.563 169.676C470.69 170.826 470.69 172.552 472.563 173.702Z" fill="#EF525E"></path><path d="M474.868 205.481L448.07 220.866C446.774 221.585 444.757 221.442 443.316 220.723L417.239 205.624C415.798 204.762 415.654 203.611 416.95 202.892L443.748 187.506C445.045 186.787 447.062 186.931 448.503 187.65L474.58 202.748C475.877 203.467 476.021 204.762 474.868 205.481Z" fill="white"></path><path d="M448.503 192.395L424.299 206.487L422.426 205.481L446.774 191.389L448.503 192.395Z" fill="#E6E6E6"></path><path d="M452.249 194.552L427.901 208.644L426.172 207.638L450.52 193.546L452.249 194.552Z" fill="#E6E6E6"></path><path d="M455.995 196.709L431.647 210.657L429.918 209.651L454.122 195.703L455.995 196.709Z" fill="#E6E6E6"></path><path d="M459.597 198.866L435.393 212.814L433.52 211.808L457.868 197.86L459.597 198.866Z" fill="#E6E6E6"></path><path d="M463.343 201.023L438.995 214.971L437.266 213.965L461.614 200.017L463.343 201.023Z" fill="#E6E6E6"></path><path d="M467.089 203.18L442.741 217.128L441.012 216.121L465.216 202.173L467.089 203.18Z" fill="#E6E6E6"></path><path d="M449.943 223.455L478.902 206.775" stroke="#EF525E" stroke-miterlimit="10" stroke-linecap="round"></path><path d="M454.554 226.043L483.369 209.363" stroke="#00FFFF" stroke-miterlimit="10" stroke-linecap="round"></path><path d="M459.021 228.631L487.979 211.951" stroke="#EF525E" stroke-miterlimit="10" stroke-linecap="round"></path><path d="M463.63 231.22L492.445 214.683" stroke="#00FFFF" stroke-miterlimit="10" stroke-linecap="round"></path><path opacity="0.3" d="M525.726 197.716L501.954 211.376C500.513 212.239 498.064 212.095 496.335 211.089L465.503 193.402C463.919 192.395 463.63 190.958 465.071 190.239L488.843 176.578C490.284 175.715 492.733 175.859 494.462 176.866L525.294 194.552C527.023 195.559 527.167 196.997 525.726 197.716Z" fill="url(#paint40_linear)"></path><path opacity="0.53" d="M502.675 204.905C503.683 205.48 507.429 204.33 511.031 202.173C514.633 200.16 516.794 198.003 515.786 197.428C514.777 196.853 511.031 198.003 507.429 200.16C503.828 202.173 501.666 204.33 502.675 204.905Z" fill="#22173F"></path><path d="M480.199 194.409C484.954 197.141 504.692 204.043 509.446 201.311C514.201 198.579 502.243 187.219 497.488 184.487C492.734 181.755 485.098 181.755 480.343 184.487C475.445 187.219 475.445 191.676 480.199 194.409Z" fill="url(#paint41_linear)" stroke="#00FFFF" stroke-miterlimit="10"></path><path opacity="0.53" d="M506.565 199.729C502.243 202.173 485.53 196.709 479.047 193.69C479.335 193.977 479.767 194.265 480.199 194.409C484.954 197.141 504.692 204.043 509.447 201.311C514.201 198.579 502.243 187.219 497.488 184.487C497.056 184.199 496.624 184.055 496.192 183.912C501.378 187.506 510.887 197.141 506.565 199.729Z" fill="#22173F"></path><path d="M480.199 194.409C484.954 197.141 504.692 204.043 509.446 201.311C514.201 198.579 502.243 187.219 497.488 184.487C492.734 181.755 485.098 181.755 480.343 184.487C475.445 187.219 475.445 191.676 480.199 194.409Z" stroke="#00FFFF" stroke-miterlimit="10"></path><path d="M483.945 192.827C486.971 194.552 491.725 194.552 494.607 192.827C497.632 191.101 497.632 188.369 494.607 186.644C491.581 184.918 486.827 184.918 483.945 186.644C481.064 188.369 481.064 191.101 483.945 192.827Z" fill="#00FFFF"></path><path d="M471.555 171.689C471.555 171.689 472.275 173.415 475.877 173.415C479.479 173.415 480.487 171.689 480.487 171.689V133.296H471.555V171.689Z" fill="url(#paint42_linear)"></path><g opacity="0.63"><g opacity="0.63"><path opacity="0.63" d="M473.86 203.468L447.063 218.853C445.766 219.572 443.749 219.429 442.308 218.71L416.231 203.611C414.79 202.749 414.646 201.598 415.943 200.879L442.74 185.493C444.037 184.774 446.054 184.918 447.495 185.637L473.572 200.736C475.013 201.598 475.157 202.892 473.86 203.468Z" fill="white"></path></g><g opacity="0.63"><path opacity="0.63" d="M447.639 190.526L423.29 204.474L421.562 203.467L445.766 189.52L447.639 190.526Z" fill="#E6E6E6"></path><path opacity="0.63" d="M451.241 192.683L427.036 206.631L425.163 205.624L449.512 191.677L451.241 192.683Z" fill="#E6E6E6"></path><path opacity="0.63" d="M454.987 194.84L430.638 208.788L428.909 207.781L453.258 193.833L454.987 194.84Z" fill="#E6E6E6"></path><path opacity="0.63" d="M458.733 196.997L434.384 210.945L432.655 209.938L456.86 195.99L458.733 196.997Z" fill="#E6E6E6"></path><path opacity="0.63" d="M462.334 199.154L438.13 213.102L436.257 212.095L460.605 198.003L462.334 199.154Z" fill="#E6E6E6"></path><path opacity="0.63" d="M466.08 201.167L441.732 215.258L440.003 214.252L464.351 200.16L466.08 201.167Z" fill="#E6E6E6"></path></g></g><g opacity="0.63"><path opacity="0.63" d="M473.86 199.873L447.063 215.258C445.766 215.977 443.749 215.834 442.308 215.115L416.231 200.016C414.79 199.154 414.646 198.003 415.943 197.284L442.74 181.898C444.037 181.18 446.054 181.323 447.495 182.042L473.572 197.141C475.013 198.003 475.157 199.154 473.86 199.873Z" fill="#00FFFF"></path><g opacity="0.63"><path opacity="0.63" d="M447.639 186.931L423.29 200.879L421.562 199.872L445.766 185.925L447.639 186.931Z" fill="white"></path><path opacity="0.63" d="M451.241 189.088L427.036 203.036L425.163 202.029L449.512 188.082L451.241 189.088Z" fill="white"></path><path opacity="0.63" d="M454.987 191.245L430.638 205.193L428.909 204.186L453.258 190.238L454.987 191.245Z" fill="white"></path><path opacity="0.63" d="M458.733 193.402L434.384 207.35L432.655 206.343L456.86 192.251L458.733 193.402Z" fill="white"></path><path opacity="0.63" d="M462.334 195.415L438.13 209.506L436.257 208.5L460.605 194.408L462.334 195.415Z" fill="white"></path><path opacity="0.63" d="M466.08 197.572L441.732 211.663L440.003 210.513L464.351 196.565L466.08 197.572Z" fill="white"></path></g></g><path opacity="0.32" d="M76.5035 151.702L120.878 126.107C121.887 125.531 122.607 124.381 122.607 123.231V72.1841C122.607 69.5958 119.87 68.0141 117.565 69.3082L73.1898 94.9034C72.1813 95.4786 71.4609 96.6289 71.4609 97.7793V148.826C71.605 151.414 74.3424 152.996 76.5035 151.702Z" fill="url(#paint43_linear)"></path><path opacity="0.56" d="M76.5035 141.061L120.878 115.466C121.887 114.891 122.607 113.74 122.607 112.59V61.5435C122.607 58.9552 119.87 57.3735 117.565 58.6676L73.1898 84.2628C72.1813 84.838 71.4609 85.9883 71.4609 87.1387V138.185C71.605 140.774 74.3424 142.355 76.5035 141.061Z" fill="#00FFFF"></path><path d="M79.3849 143.218L123.76 117.623C124.768 117.048 125.489 115.897 125.489 114.747V63.7004C125.489 61.1122 122.751 59.5304 120.446 60.8246L75.9271 86.4198C74.9186 86.9949 74.1982 88.1453 74.1982 89.2956V140.342C74.3423 142.93 77.0797 144.512 79.3849 143.218Z" fill="#00FFFF"></path><path d="M103.301 79.6614C104.165 79.23 104.886 79.5176 104.886 80.5242V81.3869C107.047 80.5242 108.776 80.2366 110.361 80.5242C110.937 80.5242 111.369 80.9555 111.369 81.8183C111.369 83.1124 110.505 84.5504 109.352 85.2693C109.064 85.4131 108.632 85.5569 108.344 85.5569C107.047 85.4131 105.894 85.5569 104.598 85.8445V93.7531C110.073 92.1714 112.378 93.3218 112.378 97.7793C112.378 102.381 109.352 107.126 104.742 110.146V112.59C104.742 113.597 104.021 114.747 103.157 115.178C102.292 115.61 101.572 115.322 101.572 114.316V111.727C98.8347 112.878 96.3855 113.309 94.2243 112.734C93.648 112.59 93.2158 112.159 93.2158 111.296C93.2158 110.002 94.0803 108.564 95.2329 107.845C95.6651 107.557 96.0973 107.557 96.3855 107.557C98.1143 107.989 99.6992 107.989 101.716 107.27V99.2173C96.5295 100.655 94.0803 99.7924 94.0803 95.1911C94.0803 90.7335 97.1058 85.9883 101.572 82.9686V82.1059C101.716 81.3869 102.437 80.2366 103.301 79.6614ZM101.86 94.6159V87.2824C99.5551 88.8642 98.4025 90.8773 98.4025 92.7466C98.5466 94.4721 99.1229 95.1911 101.86 94.6159ZM104.742 98.6421V106.119C107.047 104.538 108.344 102.525 108.344 100.511C108.344 98.7859 107.479 98.0669 104.742 98.6421Z" fill="white"></path><defs><linearGradient id="paint0_linear" x1="119.755" y1="79.2597" x2="520.57" y2="378.697" gradientUnits="userSpaceOnUse"><stop stop-color="#1B1464" stop-opacity="0.4"></stop><stop offset="1" stop-color="#662D91" stop-opacity="0.6"></stop></linearGradient><linearGradient id="paint1_linear" x1="129.639" y1="82.2342" x2="506.831" y2="364.023" gradientUnits="userSpaceOnUse"><stop stop-color="#1B1464" stop-opacity="0.4"></stop><stop offset="1" stop-color="#662D91" stop-opacity="0.6"></stop></linearGradient><linearGradient id="paint2_linear" x1="202.157" y1="116.759" x2="413.104" y2="116.759" gradientUnits="userSpaceOnUse"><stop stop-color="#1B1464" stop-opacity="0.4"></stop><stop offset="1" stop-color="#662D91" stop-opacity="0.6"></stop></linearGradient><linearGradient id="paint3_linear" x1="355.882" y1="75.4962" x2="388.862" y2="75.4962" gradientUnits="userSpaceOnUse"><stop stop-color="#1B1464" stop-opacity="0.8"></stop><stop offset="1" stop-color="#662D91" stop-opacity="0.6"></stop></linearGradient><linearGradient id="paint4_linear" x1="322.781" y1="75.4963" x2="355.976" y2="75.4963" gradientUnits="userSpaceOnUse"><stop stop-color="#1B1464" stop-opacity="0.8"></stop><stop offset="1" stop-color="#662D91" stop-opacity="0.6"></stop></linearGradient><linearGradient id="paint5_linear" x1="322.874" y1="49.4503" x2="388.862" y2="49.4503" gradientUnits="userSpaceOnUse"><stop stop-color="#1B1464" stop-opacity="0.8"></stop><stop offset="1" stop-color="#662D91" stop-opacity="0.6"></stop></linearGradient><linearGradient id="paint6_linear" x1="355.884" y1="75.4963" x2="388.86" y2="75.4963" gradientUnits="userSpaceOnUse"><stop stop-color="#1B1464" stop-opacity="0.8"></stop><stop offset="1" stop-color="#662D91" stop-opacity="0.6"></stop></linearGradient><linearGradient id="paint7_linear" x1="322.781" y1="75.4965" x2="355.975" y2="75.4965" gradientUnits="userSpaceOnUse"><stop stop-color="#1B1464" stop-opacity="0.8"></stop><stop offset="1" stop-color="#662D91" stop-opacity="0.6"></stop></linearGradient><linearGradient id="paint8_linear" x1="323.318" y1="49.4505" x2="388.419" y2="49.4505" gradientUnits="userSpaceOnUse"><stop stop-color="#1B1464" stop-opacity="0.8"></stop><stop offset="1" stop-color="#662D91" stop-opacity="0.6"></stop></linearGradient><linearGradient id="paint9_linear" x1="309.169" y1="85.6162" x2="342.243" y2="85.6162" gradientUnits="userSpaceOnUse"><stop stop-color="#1B1464" stop-opacity="0.8"></stop><stop offset="1" stop-color="#662D91" stop-opacity="0.6"></stop></linearGradient><linearGradient id="paint10_linear" x1="276.068" y1="85.6163" x2="309.357" y2="85.6163" gradientUnits="userSpaceOnUse"><stop stop-color="#1B1464" stop-opacity="0.8"></stop><stop offset="1" stop-color="#662D91" stop-opacity="0.6"></stop></linearGradient><linearGradient id="paint11_linear" x1="276.255" y1="43.0614" x2="342.243" y2="43.0614" gradientUnits="userSpaceOnUse"><stop stop-color="#1B1464" stop-opacity="0.8"></stop><stop offset="1" stop-color="#662D91" stop-opacity="0.6"></stop></linearGradient><linearGradient id="paint12_linear" x1="309.172" y1="85.6164" x2="342.242" y2="85.6164" gradientUnits="userSpaceOnUse"><stop stop-color="#1B1464" stop-opacity="0.8"></stop><stop offset="1" stop-color="#662D91" stop-opacity="0.6"></stop></linearGradient><linearGradient id="paint13_linear" x1="276.069" y1="85.6165" x2="309.357" y2="85.6165" gradientUnits="userSpaceOnUse"><stop stop-color="#1B1464" stop-opacity="0.8"></stop><stop offset="1" stop-color="#662D91" stop-opacity="0.6"></stop></linearGradient><linearGradient id="paint14_linear" x1="276.7" y1="43.0616" x2="341.8" y2="43.0616" gradientUnits="userSpaceOnUse"><stop stop-color="#1B1464" stop-opacity="0.8"></stop><stop offset="1" stop-color="#662D91" stop-opacity="0.6"></stop></linearGradient><linearGradient id="paint15_linear" x1="264.594" y1="136.253" x2="297.527" y2="136.253" gradientUnits="userSpaceOnUse"><stop stop-color="#1B1464" stop-opacity="0.7"></stop><stop offset="1" stop-color="#662D91" stop-opacity="0.6"></stop></linearGradient><linearGradient id="paint16_linear" x1="231.493" y1="136.253" x2="264.641" y2="136.253" gradientUnits="userSpaceOnUse"><stop stop-color="#1B1464" stop-opacity="0.7"></stop><stop offset="1" stop-color="#662D91" stop-opacity="0.6"></stop></linearGradient><linearGradient id="paint17_linear" x1="231.54" y1="118.461" x2="297.528" y2="118.461" gradientUnits="userSpaceOnUse"><stop stop-color="#1B1464" stop-opacity="0.7"></stop><stop offset="1" stop-color="#662D91" stop-opacity="0.6"></stop></linearGradient><linearGradient id="paint18_linear" x1="264.596" y1="136.253" x2="297.525" y2="136.253" gradientUnits="userSpaceOnUse"><stop stop-color="#1B1464" stop-opacity="0.7"></stop><stop offset="1" stop-color="#662D91" stop-opacity="0.6"></stop></linearGradient><linearGradient id="paint19_linear" x1="231.493" y1="136.253" x2="264.64" y2="136.253" gradientUnits="userSpaceOnUse"><stop stop-color="#1B1464" stop-opacity="0.7"></stop><stop offset="1" stop-color="#662D91" stop-opacity="0.6"></stop></linearGradient><linearGradient id="paint20_linear" x1="231.983" y1="118.462" x2="297.083" y2="118.462" gradientUnits="userSpaceOnUse"><stop stop-color="#1B1464" stop-opacity="0.7"></stop><stop offset="1" stop-color="#662D91" stop-opacity="0.6"></stop></linearGradient><linearGradient id="paint21_linear" x1="66.801" y1="190.127" x2="208.708" y2="190.127" gradientUnits="userSpaceOnUse"><stop stop-color="#1B1464" stop-opacity="0.7"></stop><stop offset="1" stop-color="#662D91" stop-opacity="0.6"></stop></linearGradient><linearGradient id="paint22_linear" x1="146.259" y1="224.642" x2="232.713" y2="224.642" gradientUnits="userSpaceOnUse"><stop stop-color="#1B1464" stop-opacity="0.7"></stop><stop offset="1" stop-color="#662D91" stop-opacity="0.6"></stop></linearGradient><linearGradient id="paint23_linear" x1="128.355" y1="232.332" x2="189.486" y2="232.332" gradientUnits="userSpaceOnUse"><stop stop-color="#1B1464" stop-opacity="0.4"></stop><stop offset="1" stop-color="#662D91" stop-opacity="0.6"></stop></linearGradient><linearGradient id="paint24_linear" x1="146.26" y1="259.868" x2="232.713" y2="259.868" gradientUnits="userSpaceOnUse"><stop stop-color="#1B1464" stop-opacity="0.7"></stop><stop offset="1" stop-color="#662D91" stop-opacity="0.6"></stop></linearGradient><linearGradient id="paint25_linear" x1="189.486" y1="242.255" x2="250.618" y2="242.255" gradientUnits="userSpaceOnUse"><stop stop-color="#1B1464" stop-opacity="0.7"></stop><stop offset="1" stop-color="#662D91" stop-opacity="0.6"></stop></linearGradient><linearGradient id="paint26_linear" x1="420.369" y1="148.35" x2="467.814" y2="148.35" gradientUnits="userSpaceOnUse"><stop stop-color="#1B1464" stop-opacity="0.4"></stop><stop offset="1" stop-color="#662D91" stop-opacity="0.6"></stop></linearGradient><linearGradient id="paint27_linear" x1="295.311" y1="16.7313" x2="320.131" y2="16.7313" gradientUnits="userSpaceOnUse"><stop stop-color="#93278F" stop-opacity="0.8"></stop><stop offset="1" stop-color="#662D91" stop-opacity="0.6"></stop></linearGradient><linearGradient id="paint28_linear" x1="161.733" y1="55.5693" x2="159.081" y2="106.411" gradientUnits="userSpaceOnUse"><stop stop-color="#1B1464" stop-opacity="0"></stop><stop offset="0.1372" stop-color="#321C72" stop-opacity="0.0823091"></stop><stop offset="0.3134" stop-color="#492380" stop-opacity="0.1881"></stop><stop offset="0.504" stop-color="#592989" stop-opacity="0.3024"></stop><stop offset="0.7174" stop-color="#632C8F" stop-opacity="0.4304"></stop><stop offset="1" stop-color="#662D91" stop-opacity="0.6"></stop></linearGradient><linearGradient id="paint29_linear" x1="257.745" y1="301.13" x2="272.075" y2="301.13" gradientUnits="userSpaceOnUse"><stop stop-color="#1B1464" stop-opacity="0.7"></stop><stop offset="1" stop-color="#662D91" stop-opacity="0.6"></stop></linearGradient><linearGradient id="paint30_linear" x1="243.347" y1="301.13" x2="257.778" y2="301.13" gradientUnits="userSpaceOnUse"><stop stop-color="#1B1464" stop-opacity="0.7"></stop><stop offset="1" stop-color="#662D91" stop-opacity="0.6"></stop></linearGradient><linearGradient id="paint31_linear" x1="243.859" y1="293.855" x2="271.607" y2="293.855" gradientUnits="userSpaceOnUse"><stop stop-color="#1B1464" stop-opacity="0.7"></stop><stop offset="1" stop-color="#662D91" stop-opacity="0.6"></stop></linearGradient><linearGradient id="paint32_linear" x1="363.659" y1="238.149" x2="366.089" y2="233.932" gradientUnits="userSpaceOnUse"><stop stop-color="#1B1464" stop-opacity="0.8"></stop><stop offset="1" stop-color="#662D91" stop-opacity="0.6"></stop></linearGradient><linearGradient id="paint33_linear" x1="369.47" y1="241.498" x2="376.854" y2="228.684" gradientUnits="userSpaceOnUse"><stop stop-color="#1B1464" stop-opacity="0.8"></stop><stop offset="1" stop-color="#662D91" stop-opacity="0.6"></stop></linearGradient><linearGradient id="paint34_linear" x1="375.657" y1="245.063" x2="379.863" y2="237.764" gradientUnits="userSpaceOnUse"><stop stop-color="#1B1464" stop-opacity="0.8"></stop><stop offset="1" stop-color="#662D91" stop-opacity="0.6"></stop></linearGradient><linearGradient id="paint35_linear" x1="381.561" y1="248.466" x2="391.002" y2="232.084" gradientUnits="userSpaceOnUse"><stop stop-color="#1B1464" stop-opacity="0.8"></stop><stop offset="1" stop-color="#662D91" stop-opacity="0.6"></stop></linearGradient><linearGradient id="paint36_linear" x1="387.468" y1="251.869" x2="403.825" y2="223.484" gradientUnits="userSpaceOnUse"><stop stop-color="#1B1464" stop-opacity="0.8"></stop><stop offset="1" stop-color="#662D91" stop-opacity="0.6"></stop></linearGradient><linearGradient id="paint37_linear" x1="393.654" y1="255.434" x2="406.553" y2="233.05" gradientUnits="userSpaceOnUse"><stop stop-color="#1B1464" stop-opacity="0.8"></stop><stop offset="1" stop-color="#662D91" stop-opacity="0.6"></stop></linearGradient><linearGradient id="paint38_linear" x1="399.559" y1="258.837" x2="409.374" y2="241.805" gradientUnits="userSpaceOnUse"><stop stop-color="#1B1464" stop-opacity="0.8"></stop><stop offset="1" stop-color="#662D91" stop-opacity="0.6"></stop></linearGradient><linearGradient id="paint39_linear" x1="405.653" y1="262.347" x2="418.551" y2="239.964" gradientUnits="userSpaceOnUse"><stop stop-color="#1B1464" stop-opacity="0.8"></stop><stop offset="1" stop-color="#662D91" stop-opacity="0.6"></stop></linearGradient><linearGradient id="paint40_linear" x1="472.876" y1="207.024" x2="479.303" y2="173.569" gradientUnits="userSpaceOnUse"><stop stop-color="#1B1464" stop-opacity="0.8"></stop><stop offset="1" stop-color="#662D91" stop-opacity="0.6"></stop></linearGradient><linearGradient id="paint41_linear" x1="486.207" y1="197.845" x2="494.786" y2="182.958" gradientUnits="userSpaceOnUse"><stop stop-color="#1B1464" stop-opacity="0.8"></stop><stop offset="1" stop-color="#662D91" stop-opacity="0.6"></stop></linearGradient><linearGradient id="paint42_linear" x1="475.939" y1="157.554" x2="475.939" y2="166.525" gradientUnits="userSpaceOnUse"><stop stop-color="#F2F2F2" stop-opacity="0"></stop><stop offset="0.1046" stop-color="#EDF2F2" stop-opacity="0.0313901"></stop><stop offset="0.2322" stop-color="#DEF3F3" stop-opacity="0.0696549"></stop><stop offset="0.3717" stop-color="#C5F4F4" stop-opacity="0.1115"></stop><stop offset="0.5198" stop-color="#A3F6F6" stop-opacity="0.1559"></stop><stop offset="0.6747" stop-color="#76F9F9" stop-opacity="0.2024"></stop><stop offset="0.8353" stop-color="#40FCFC" stop-opacity="0.2506"></stop><stop offset="0.9977" stop-color="#01FFFF" stop-opacity="0.2993"></stop><stop offset="1" stop-color="#00FFFF" stop-opacity="0.3"></stop></linearGradient><linearGradient id="paint43_linear" x1="97.0364" y1="110.974" x2="96.1677" y2="161.876" gradientUnits="userSpaceOnUse"><stop stop-color="#1B1464" stop-opacity="0"></stop><stop offset="1" stop-color="#662D91" stop-opacity="0.6"></stop></linearGradient></defs></svg> 